<svg width="48" height="49" viewBox="0 0 48 49" xmlns="http://www.w3.org/2000/svg"><title>Fill 1</title><path d="M19.656 15.872a1.13 1.13 0 0 0-.956-.226L2.682 19.133c-3.816.801-2.742 4.247-1.716 7.7 3.512 10.8 11.68 18.601 16.98 21.895.799.392 2.152.2 2.152-.954V16.76c0-.345-.173-.67-.442-.887m25.174 3.315l-16.265-3.54a1.13 1.13 0 0 0-.956.225 1.152 1.152 0 0 0-.441.887v31.016c0 1.171 1.399 1.352 2.19.935 5.818-3.634 15.054-12.669 17.827-25.102.364-2.102.05-3.827-2.355-4.42m.732-9.768c.022-.805.04-1.74.057-2.58 0-1.889-.825-2.256-1.531-2.444L26.078.284c-1.72-.36-3.072-.39-4.828-.015L3.158 4.396c-.706.188-1.53.555-1.53 2.444.015.84.034 1.775.056 2.58.063 1.131.37 2.501 1.802 2.171l17.103-3.613.207-.053c2.115-.514 3.584-.479 5.63-.01.156.038.25.063.25.063l17.085 3.613c1.43.33 1.739-1.04 1.8-2.17" fill="#263B77" fill-rule="evenodd"/></svg>